<svg width="271.1275390625px" height="134px" xmlns="http://www.w3.org/2000/svg" viewBox="114.43623046875001 8 271.1275390625 134" style="background: none;" preserveAspectRatio="xMidYMid"><defs><linearGradient id="editing-shiny-gradient" x1="0.04322727117869957" x2="0.9567727288213004" y1="0.2966316784620999" y2="0.7033683215379001" gradientUnits="objectBoundingBox"><stop offset="0.0" stop-color="#e7008a"></stop><stop offset="0.5" stop-color="#ff003a"></stop><stop offset="1.0" stop-color="#ff6d00"></stop></linearGradient><linearGradient id="editing-shiny-gradient2" x1="0" x2="0" y1="0" y2="1"><stop offset="0.2" stop-color="#fff" stop-opacity="0.8"></stop><stop offset="0.8" stop-color="#fff" stop-opacity="0"></stop></linearGradient><filter id="editing-shiny2" x="-100%" y="-100%" width="300%" height="300%"><feMorphology operator="erode" radius="2"></feMorphology></filter><filter id="editing-shiny" x="-100%" y="-100%" width="300%" height="300%"><feFlood flood-color="#fff" result="flood"></feFlood><feConvolveMatrix in="SourceGraphic" result="conv" order="8,8" divisor="1" kernelMatrix="0 0 0 0 0 0 0 0 0 0 0 1 1 0 0 0 0 0 0 1 1 0 0 0 0 0 1 0 0 1 0 0 0 0 1 0 0 1 0 0 0 1 0 0 0 0 1 0 0 1 1 0 0 1 1 0 0 0 0 1 1 0 0 0 "></feConvolveMatrix><feOffset dx="0" dy="4" in="conv" result="offset"></feOffset><feComposite operator="in" in="flood" in2="offset" result="comp"></feComposite><feGaussianBlur in="offset" stdDeviation="3" result="shadow"></feGaussianBlur><feColorMatrix in="shadow" type="matrix" values="0.7 0 0 0 0  0 0.7 0 0 0  0 0 0.7 0 0  0 0 0 0.3 0" result="dark-shadow"></feColorMatrix><feOffset dx="0" dy="4" in="dark-shadow" result="offset-shadow"></feOffset><feOffset dx="0" dy="2" in="conv" result="offset-2"></feOffset><feComposite operator="out" in="offset" in2="offset-2" result="edge-diff"></feComposite><feGaussianBlur in="edge-diff" stdDeviation="1" result="edge-blur"></feGaussianBlur><feColorMatrix in="edge-blur" result="edge-shadow" type="matrix" values="0 0 0 0 0  0 0 0 0 0  0 0 0 0 0  0 0 0 0.5 0"></feColorMatrix><feComposite operator="in" in="edge-shadow" in2="offset" result="edge-shadow-in"></feComposite><feOffset dx="0" dy="1" in="edge-shadow-in" result="edge-shadow-final"></feOffset><feMerge result="out"><feMergeNode in="offset-shadow"></feMergeNode><feMergeNode in="comp"></feMergeNode><feMergeNode in="edge-shadow-final"></feMergeNode><feMergeNode in="SourceGraphic"></feMergeNode></feMerge></filter></defs><g filter="url(#editing-shiny)"><g transform="translate(160.27099895477295, 104.76000022888184)"><path d="M21.52-41.84L21.52-41.84L21.52-41.84Q21.52-39.04 23.40-37.08L23.40-37.08L23.40-37.08Q25.28-35.12 29.84-33.76L29.84-33.76L29.84-33.76Q30.08-33.60 29.88-33.24L29.88-33.24L29.88-33.24Q29.68-32.88 29.28-32.48L29.28-32.48L29.28-32.48Q28.88-32.08 28.36-31.76L28.36-31.76L28.36-31.76Q27.84-31.44 27.52-31.36L27.52-31.36L27.52-31.36Q18.56-31.76 13.60-27.48L13.60-27.48L13.60-27.48Q8.64-23.20 8.64-14.56L8.64-14.56L8.64-14.56Q8.64-11.76 9.48-9.36L9.48-9.36L9.48-9.36Q10.32-6.96 11.88-5.20L11.88-5.20L11.88-5.20Q13.44-3.44 15.64-2.44L15.64-2.44L15.64-2.44Q17.84-1.44 20.64-1.44L20.64-1.44L20.64-1.44Q27.20-1.44 31.36-4.48L31.36-4.48L31.36-4.48Q35.52-7.52 37.36-14.32L37.36-14.32L37.36-14.32Q37.60-14.72 37.88-14.56L37.88-14.56L37.88-14.56Q38.16-14.40 38.24-13.92L38.24-13.92L38.24-13.92Q37.28-9.44 35.96-6.48L35.96-6.48L35.96-6.48Q34.64-3.52 33.52-3.04L33.52-3.04L33.52-3.04Q30.72-1.76 26.76-0.88L26.76-0.88L26.76-0.88Q22.80 0 18.72 0L18.72 0L18.72 0Q15.36 0 12.76-1.04L12.76-1.04L12.76-1.04Q10.16-2.08 8.40-3.84L8.40-3.84L8.40-3.84Q6.64-5.60 5.72-7.88L5.72-7.88L5.72-7.88Q4.80-10.16 4.80-12.64L4.80-12.64L4.80-12.64Q4.80-16.48 6.20-19.88L6.20-19.88L6.20-19.88Q7.60-23.28 10.12-25.92L10.12-25.92L10.12-25.92Q12.64-28.56 16.12-30.40L16.12-30.40L16.12-30.40Q19.60-32.24 23.76-32.96L23.76-32.96L23.76-32.96Q21.20-34.32 19.76-36.16L19.76-36.16L19.76-36.16Q18.32-38 18.32-40.16L18.32-40.16L18.32-40.16Q18.32-42.40 19.48-44.44L19.48-44.44L19.48-44.44Q20.64-46.48 22.68-48.04L22.68-48.04L22.68-48.04Q24.72-49.60 27.48-50.56L27.48-50.56L27.48-50.56Q30.24-51.52 33.52-51.52L33.52-51.52L33.52-51.52Q35.44-51.52 37.28-51.16L37.28-51.16L37.28-51.16Q39.12-50.80 40.56-50.20L40.56-50.20L40.56-50.20Q42-49.60 42.84-48.84L42.84-48.84L42.84-48.84Q43.68-48.08 43.68-47.28L43.68-47.28L43.68-47.28Q43.68-46.64 43.40-45.80L43.40-45.80L43.40-45.80Q43.12-44.96 42.76-44.08L42.76-44.08L42.76-44.08Q42.40-43.20 41.96-42.44L41.96-42.44L41.96-42.44Q41.52-41.68 41.28-41.36L41.28-41.36L41.28-41.36Q41.12-41.20 40.84-41.32L40.84-41.32L40.84-41.32Q40.56-41.44 40.64-41.76L40.64-41.76L40.64-41.76Q41.12-42.64 41.36-43.72L41.36-43.72L41.36-43.72Q41.60-44.80 40.96-45.84L40.96-45.84L40.96-45.84Q40.08-47.28 37.60-48.72L37.60-48.72L37.60-48.72Q35.12-50.16 31.92-50.16L31.92-50.16L31.92-50.16Q29.28-50.16 27.36-49.44L27.36-49.44L27.36-49.44Q25.44-48.72 24.12-47.52L24.12-47.52L24.12-47.52Q22.80-46.32 22.16-44.84L22.16-44.84L22.16-44.84Q21.52-43.36 21.52-41.84ZM74.88-59.44L74.88-59.44L74.88-59.44Q76.96-59.44 77.56-57.52L77.56-57.52L77.56-57.52Q78.16-55.60 77.04-53.44L77.04-53.44L77.04-53.44Q76.88-53.28 76.64-53.44L76.64-53.44L76.64-53.44Q76.40-53.60 76.32-53.84L76.32-53.84L76.32-53.84Q76.48-54.80 75.64-55.44L75.64-55.44L75.64-55.44Q74.80-56.08 73.04-56.08L73.04-56.08L73.04-56.08Q69.60-56.08 66.24-53.20L66.24-53.20L66.24-53.20Q62.88-50.32 59.76-45.72L59.76-45.72L59.76-45.72Q56.64-41.12 53.96-35.44L53.96-35.44L53.96-35.44Q51.28-29.76 49.32-24.12L49.32-24.12L49.32-24.12Q47.36-18.48 46.24-13.48L46.24-13.48L46.24-13.48Q45.12-8.48 45.12-5.36L45.12-5.36L45.12-5.36Q45.12-2.96 46.48-2.96L46.48-2.96L46.48-2.96Q47.44-2.96 48.36-3.76L48.36-3.76L48.36-3.76Q49.28-4.56 50.48-6.16L50.48-6.16L50.48-6.16Q50.72-6.32 50.92-6.12L50.92-6.12L50.92-6.12Q51.12-5.92 51.04-5.60L51.04-5.60L51.04-5.60Q49.44-3.12 47.52-1.56L47.52-1.56L47.52-1.56Q45.60 0 44.24 0L44.24 0L44.24 0Q43.20 0 42.56-0.84L42.56-0.84L42.56-0.84Q41.92-1.68 41.92-3.12L41.92-3.12L41.92-3.12Q41.92-5.36 42.72-8.92L42.72-8.92L42.72-8.92Q43.52-12.48 44.96-16.88L44.96-16.88L44.96-16.88Q46.40-21.28 48.44-26.12L48.44-26.12L48.44-26.12Q50.48-30.96 52.88-35.68L52.88-35.68L52.88-35.68Q55.28-40.40 57.96-44.72L57.96-44.72L57.96-44.72Q60.64-49.04 63.48-52.32L63.48-52.32L63.48-52.32Q66.32-55.60 69.20-57.52L69.20-57.52L69.20-57.52Q72.08-59.44 74.88-59.44ZM54.40-14.88L54.40-14.88L54.40-14.88Q54.16-14.72 53.96-15L53.96-15L53.96-15Q53.76-15.28 53.92-15.52L53.92-15.52L53.92-15.52Q55.04-16.64 56.96-18.08L56.96-18.08L56.96-18.08Q58.88-19.52 60.80-20.48L60.80-20.48L60.80-20.48Q61.44-20.48 61.44-19.76L61.44-19.76L61.44-19.76Q60.40-17.92 59.40-15.76L59.40-15.76L59.40-15.76Q58.40-13.60 57.64-11.48L57.64-11.48L57.64-11.48Q56.88-9.36 56.40-7.40L56.40-7.40L56.40-7.40Q55.92-5.44 55.92-4.16L55.92-4.16L55.92-4.16Q55.92-2.48 57.04-2.48L57.04-2.48L57.04-2.48Q57.92-2.48 58.76-3.24L58.76-3.24L58.76-3.24Q59.60-4 60.72-5.28L60.72-5.28L60.72-5.28Q60.88-5.44 61.12-5.20L61.12-5.20L61.12-5.20Q61.36-4.96 61.20-4.64L61.20-4.64L61.20-4.64Q59.76-2.88 58.12-1.44L58.12-1.44L58.12-1.44Q56.48 0 55.04 0L55.04 0L55.04 0Q52.96 0 52.96-2.64L52.96-2.64L52.96-2.64Q52.96-4.16 53.48-6.28L53.48-6.28L53.48-6.28Q54-8.40 54.80-10.56L54.80-10.56L54.80-10.56Q55.60-12.72 56.60-14.72L56.60-14.72L56.60-14.72Q57.60-16.72 58.56-18.16L58.56-18.16L58.56-18.16Q57.68-17.52 56.36-16.52L56.36-16.52L56.36-16.52Q55.04-15.52 54.40-14.88ZM61.60-23.92L61.60-23.92L61.60-23.92Q61.36-23.68 61.16-23.88L61.16-23.88L61.16-23.88Q60.96-24.08 60.88-24.44L60.88-24.44L60.88-24.44Q60.80-24.80 60.80-25.28L60.80-25.28L60.80-25.28Q60.80-25.76 61.04-26.08L61.04-26.08L61.04-26.08Q63.12-28.96 66.88-32.24L66.88-32.24L66.88-32.24Q67.12-32.32 67.36-32.12L67.36-32.12L67.36-32.12Q67.60-31.92 67.44-31.76L67.44-31.76L67.44-31.76Q65.76-30.24 64.24-28.12L64.24-28.12L64.24-28.12Q62.72-26 61.60-23.92ZM66-3.92L66-3.92L66-3.92Q67.84-3.28 69.80-2.84L69.80-2.84L69.80-2.84Q71.76-2.40 73.76-2.40L73.76-2.40L73.76-2.40Q75.84-2.40 77.16-3.56L77.16-3.56L77.16-3.56Q78.48-4.72 79.36-7.04L79.36-7.04L79.36-7.04Q79.60-7.20 79.92-7.04L79.92-7.04L79.92-7.04Q80.24-6.88 80.08-6.56L80.08-6.56L80.08-6.56Q78.96-3.52 77.16-1.72L77.16-1.72L77.16-1.72Q75.36 0.08 72.88 0.08L72.88 0.08L72.88 0.08Q71.20 0.08 69.52-0.28L69.52-0.28L69.52-0.28Q67.84-0.64 66-1.28L66-1.28L66-1.28Q65.04-1.68 64.20-1.36L64.20-1.36L64.20-1.36Q63.36-1.04 62.16 0.08L62.16 0.08L62.16 0.08Q61.76 0.08 61.52-0.32L61.52-0.32L61.52-0.32Q61.28-0.72 61.52-1.12L61.52-1.12L61.52-1.12Q63.28-2.88 65.40-4.96L65.40-4.96L65.40-4.96Q67.52-7.04 69.68-9.20L69.68-9.20L69.68-9.20Q71.84-11.36 73.88-13.36L73.88-13.36L73.88-13.36Q75.92-15.36 77.60-17.04L77.60-17.04L77.60-17.04Q75.84-17.44 73.68-17.68L73.68-17.68L73.68-17.68Q71.52-17.92 70-17.92L70-17.92L70-17.92Q67.68-17.92 66.80-15.36L66.80-15.36L66.80-15.36Q66.64-15.12 66.32-15.28L66.32-15.28L66.32-15.28Q66-15.44 66-15.68L66-15.68L66-15.68Q66.64-17.44 68-18.92L68-18.92L68-18.92Q69.36-20.40 71.44-20.40L71.44-20.40L71.44-20.40Q73.28-20.40 74.96-20.04L74.96-20.04L74.96-20.04Q76.64-19.68 77.76-19.36L77.76-19.36L77.76-19.36Q78.64-19.20 79.28-19.40L79.28-19.40L79.28-19.40Q79.92-19.60 80.56-20.16L80.56-20.16L80.56-20.16Q80.80-20.40 81.28-20.40L81.28-20.40L81.28-20.40Q82.24-20.40 82.08-19.76L82.08-19.76L82.08-19.76Q77.76-15.60 73.64-11.56L73.64-11.56L73.64-11.56Q69.52-7.52 66-3.92ZM102.80-5.04L102.80-5.04L102.80-5.04Q102.96-5.20 103.20-5.04L103.20-5.04L103.20-5.04Q103.44-4.88 103.36-4.56L103.36-4.56L103.36-4.56Q101.68-2.24 100.04-1.12L100.04-1.12L100.04-1.12Q98.40 0 97.28 0L97.28 0L97.28 0Q96.56 0 96.12-0.72L96.12-0.72L96.12-0.72Q95.68-1.44 95.56-2.68L95.56-2.68L95.56-2.68Q95.44-3.92 95.64-5.48L95.64-5.48L95.64-5.48Q95.84-7.04 96.32-8.72L96.32-8.72L96.32-8.72Q94.16-5.36 91.76-2.92L91.76-2.92L91.76-2.92Q89.36-0.48 87.12 0L87.12 0L87.12 0Q85.68 0 84.68-1.40L84.68-1.40L84.68-1.40Q83.68-2.80 83.68-5.76L83.68-5.76L83.68-5.76Q83.68-8.40 84.76-11L84.76-11L84.76-11Q85.84-13.60 87.68-15.72L87.68-15.72L87.68-15.72Q89.52-17.84 91.92-19.12L91.92-19.12L91.92-19.12Q94.32-20.40 96.96-20.40L96.96-20.40L96.96-20.40Q98.40-20.40 99.44-20.08L99.44-20.08L99.44-20.08Q100.48-19.76 101.36-19.12L101.36-19.12L101.36-19.12Q101.84-19.52 102.68-19.88L102.68-19.88L102.68-19.88Q103.52-20.24 104.24-20.24L104.24-20.24L104.24-20.24Q104.64-20.24 104.48-19.84L104.48-19.84L104.48-19.84Q102.64-17.60 101.32-14.88L101.32-14.88L101.32-14.88Q100-12.16 99.28-9.60L99.28-9.60L99.28-9.60Q98.56-7.04 98.36-5.08L98.36-5.08L98.36-5.08Q98.16-3.12 98.64-2.40L98.64-2.40L98.64-2.40Q99.04-1.84 100.08-2.36L100.08-2.36L100.08-2.36Q101.12-2.88 102.80-5.04ZM88.88-2.72L88.88-2.72L88.88-2.72Q89.76-2.72 91.16-3.96L91.16-3.96L91.16-3.96Q92.56-5.20 94.08-7.20L94.08-7.20L94.08-7.20Q95.60-9.20 97.08-11.72L97.08-11.72L97.08-11.72Q98.56-14.24 99.68-16.80L99.68-16.80L99.68-16.80Q99.36-17.84 98.20-18.48L98.20-18.48L98.20-18.48Q97.04-19.12 95.52-19.12L95.52-19.12L95.52-19.12Q93.76-19.12 92.20-18.20L92.20-18.20L92.20-18.20Q90.64-17.28 89.44-15.64L89.44-15.64L89.44-15.64Q88.24-14 87.52-11.76L87.52-11.76L87.52-11.76Q86.80-9.52 86.80-6.80L86.80-6.80L86.80-6.80Q86.80-5.04 87.40-3.88L87.40-3.88L87.40-3.88Q88-2.72 88.88-2.72ZM183.36-48.72L183.36-48.72L183.36-48.72Q183.68-48.48 183.48-48.04L183.48-48.04L183.48-48.04Q183.28-47.60 182.80-47.20L182.80-47.20L182.80-47.20Q182.32-46.80 181.68-46.48L181.68-46.48L181.68-46.48Q181.04-46.16 180.48-46.16L180.48-46.16L180.48-46.16Q178.56-46.32 176.60-46.60L176.60-46.60L176.60-46.60Q174.64-46.88 172.72-47.20L172.72-47.20L172.72-47.20Q171.12-46.72 169.88-45.80L169.88-45.80L169.88-45.80Q168.64-44.88 167.60-43.32L167.60-43.32L167.60-43.32Q166.56-41.76 165.60-39.36L165.60-39.36L165.60-39.36Q164.64-36.96 163.68-33.44L163.68-33.44L163.68-33.44Q163.12-31.60 162.64-29.84L162.64-29.84L162.64-29.84Q162.16-28.08 161.52-26.40L161.52-26.40L161.52-26.40Q163.52-26.48 165.56-26.48L165.56-26.48L165.56-26.48Q167.60-26.48 169.76-26.48L169.76-26.48L169.76-26.48Q170.16-26.32 170.04-26.08L170.04-26.08L170.04-26.08Q169.92-25.84 169.28-25.68L169.28-25.68L169.28-25.68Q167.20-25.68 165.16-25.64L165.16-25.64L165.16-25.64Q163.12-25.60 161.20-25.52L161.20-25.52L161.20-25.52Q156.48-12.32 149.32-6.16L149.32-6.16L149.32-6.16Q142.16 0 132.24 0L132.24 0L132.24 0Q126.48 0 123.60-2.92L123.60-2.92L123.60-2.92Q120.72-5.84 120.72-10.64L120.72-10.64L120.72-10.64Q120.72-12.96 121.96-15.28L121.96-15.28L121.96-15.28Q123.20-17.60 125.52-19.20L125.52-19.20L125.52-19.20Q125.92-19.20 126.04-18.88L126.04-18.88L126.04-18.88Q126.16-18.56 126-18.32L126-18.32L126-18.32Q124.56-17.20 123.88-15.88L123.88-15.88L123.88-15.88Q123.20-14.56 123.20-12.32L123.20-12.32L123.20-12.32Q123.20-10.24 123.92-8.48L123.92-8.48L123.92-8.48Q124.64-6.72 126.16-5.40L126.16-5.40L126.16-5.40Q127.68-4.08 130.08-3.36L130.08-3.36L130.08-3.36Q132.48-2.64 135.84-2.64L135.84-2.64L135.84-2.64Q139.84-2.64 143.04-3.80L143.04-3.80L143.04-3.80Q146.24-4.96 148.92-7.64L148.92-7.64L148.92-7.64Q151.60-10.32 153.88-14.68L153.88-14.68L153.88-14.68Q156.16-19.04 158.24-25.36L158.24-25.36L158.24-25.36Q154.24-25.20 150.44-24.88L150.44-24.88L150.44-24.88Q146.64-24.56 142.80-24L142.80-24L142.80-24Q142.56-24.08 142.88-24.36L142.88-24.36L142.88-24.36Q143.20-24.64 143.80-24.92L143.80-24.92L143.80-24.92Q144.40-25.20 145.08-25.48L145.08-25.48L145.08-25.48Q145.76-25.76 146.16-25.84L146.16-25.84L146.16-25.84Q149.44-26.08 152.48-26.20L152.48-26.20L152.48-26.20Q155.52-26.32 158.56-26.40L158.56-26.40L158.56-26.40Q158.96-27.68 159.36-29.04L159.36-29.04L159.36-29.04Q159.76-30.40 160.16-31.84L160.16-31.84L160.16-31.84Q161.12-35.28 162.12-37.88L162.12-37.88L162.12-37.88Q163.12-40.48 164.40-42.32L164.40-42.32L164.40-42.32Q165.68-44.16 167.24-45.40L167.24-45.40L167.24-45.40Q168.80-46.64 170.88-47.44L170.88-47.44L170.88-47.44Q166.56-48.08 162.56-48.60L162.56-48.60L162.56-48.60Q158.56-49.12 154.96-49.12L154.96-49.12L154.96-49.12Q148.96-49.12 144.88-46.56L144.88-46.56L144.88-46.56Q140.80-44 138.96-38.48L138.96-38.48L138.96-38.48Q138.72-38.32 138.48-38.44L138.48-38.44L138.48-38.44Q138.24-38.56 138.24-38.96L138.24-38.96L138.24-38.96Q140-44.64 145.16-48.08L145.16-48.08L145.16-48.08Q150.32-51.52 157.92-51.52L157.92-51.52L157.92-51.52Q160.88-51.52 163.88-51.20L163.88-51.20L163.88-51.20Q166.88-50.88 170-50.44L170-50.44L170-50.44Q173.12-50 176.44-49.52L176.44-49.52L176.44-49.52Q179.76-49.04 183.36-48.72ZM170.16 0L170.16 0L170.16 0Q169.20 0 169.20-1.76L169.20-1.76L169.20-1.76Q169.20-2.24 169.52-2.80L169.52-2.80L169.52-2.80Q169.84-3.36 170.40-3.92L170.40-3.92L170.40-3.92Q170.96-4.48 171.60-4.84L171.60-4.84L171.60-4.84Q172.24-5.20 172.96-5.20L172.96-5.20L172.96-5.20Q173.76-5.20 173.76-4L173.76-4L173.76-4Q173.76-3.36 173.40-2.68L173.40-2.68L173.40-2.68Q173.04-2 172.52-1.40L172.52-1.40L172.52-1.40Q172-0.80 171.36-0.40L171.36-0.40L171.36-0.40Q170.72 0 170.16 0Z" fill="url(#editing-shiny-gradient)"></path></g></g><g filter="url(#editing-shiny2)"><g transform="translate(160.2992811203003, 104.7600040435791)"><path d="M21.52-41.84L21.52-41.84L21.52-41.84Q21.52-39.04 23.40-37.08L23.40-37.08L23.40-37.08Q25.28-35.12 29.84-33.76L29.84-33.76L29.84-33.76Q30.08-33.60 29.88-33.24L29.88-33.24L29.88-33.24Q29.68-32.88 29.28-32.48L29.28-32.48L29.28-32.48Q28.88-32.08 28.36-31.76L28.36-31.76L28.36-31.76Q27.84-31.44 27.52-31.36L27.52-31.36L27.52-31.36Q18.56-31.76 13.60-27.48L13.60-27.48L13.60-27.48Q8.64-23.20 8.64-14.56L8.64-14.56L8.64-14.56Q8.64-11.76 9.48-9.36L9.48-9.36L9.48-9.36Q10.32-6.96 11.88-5.20L11.88-5.20L11.88-5.20Q13.44-3.44 15.64-2.44L15.64-2.44L15.64-2.44Q17.84-1.44 20.64-1.44L20.64-1.44L20.64-1.44Q27.20-1.44 31.36-4.48L31.36-4.48L31.36-4.48Q35.52-7.52 37.36-14.32L37.36-14.32L37.36-14.32Q37.60-14.72 37.88-14.56L37.88-14.56L37.88-14.56Q38.16-14.40 38.24-13.92L38.24-13.92L38.24-13.92Q37.28-9.44 35.96-6.48L35.96-6.48L35.96-6.48Q34.64-3.52 33.52-3.04L33.52-3.04L33.52-3.04Q30.72-1.76 26.76-0.88L26.76-0.88L26.76-0.88Q22.80 0 18.72 0L18.72 0L18.72 0Q15.36 0 12.76-1.04L12.76-1.04L12.76-1.04Q10.16-2.08 8.40-3.84L8.40-3.84L8.40-3.84Q6.64-5.60 5.72-7.88L5.72-7.88L5.72-7.88Q4.80-10.16 4.80-12.64L4.80-12.64L4.80-12.64Q4.80-16.48 6.20-19.88L6.20-19.88L6.20-19.88Q7.60-23.28 10.12-25.92L10.12-25.92L10.12-25.92Q12.64-28.56 16.12-30.40L16.12-30.40L16.12-30.40Q19.60-32.24 23.76-32.96L23.76-32.96L23.76-32.96Q21.20-34.32 19.76-36.16L19.76-36.16L19.76-36.16Q18.32-38 18.32-40.16L18.32-40.16L18.32-40.16Q18.32-42.40 19.48-44.44L19.48-44.44L19.48-44.44Q20.64-46.48 22.68-48.04L22.68-48.04L22.68-48.04Q24.72-49.60 27.48-50.56L27.48-50.56L27.48-50.56Q30.24-51.52 33.52-51.52L33.52-51.52L33.52-51.52Q35.44-51.52 37.28-51.16L37.28-51.16L37.28-51.16Q39.12-50.80 40.56-50.20L40.56-50.20L40.56-50.20Q42-49.60 42.84-48.84L42.84-48.84L42.84-48.84Q43.68-48.08 43.68-47.28L43.68-47.28L43.68-47.28Q43.68-46.64 43.40-45.80L43.40-45.80L43.40-45.80Q43.12-44.96 42.76-44.08L42.76-44.08L42.76-44.08Q42.40-43.20 41.96-42.44L41.96-42.44L41.96-42.44Q41.52-41.68 41.28-41.36L41.28-41.36L41.28-41.36Q41.12-41.20 40.84-41.32L40.84-41.32L40.84-41.32Q40.56-41.44 40.64-41.76L40.64-41.76L40.64-41.76Q41.12-42.64 41.36-43.72L41.36-43.72L41.36-43.72Q41.60-44.80 40.96-45.84L40.96-45.84L40.96-45.84Q40.08-47.28 37.60-48.72L37.60-48.72L37.60-48.72Q35.12-50.16 31.92-50.16L31.92-50.16L31.92-50.16Q29.28-50.16 27.36-49.44L27.36-49.44L27.36-49.44Q25.44-48.72 24.12-47.52L24.12-47.52L24.12-47.52Q22.80-46.32 22.16-44.84L22.16-44.84L22.16-44.84Q21.52-43.36 21.52-41.84ZM74.88-59.44L74.88-59.44L74.88-59.44Q76.96-59.44 77.56-57.52L77.56-57.52L77.56-57.52Q78.16-55.60 77.04-53.44L77.04-53.44L77.04-53.44Q76.88-53.28 76.64-53.44L76.64-53.44L76.64-53.44Q76.40-53.60 76.32-53.84L76.32-53.84L76.32-53.84Q76.48-54.80 75.64-55.44L75.64-55.44L75.64-55.44Q74.80-56.08 73.04-56.08L73.04-56.08L73.04-56.08Q69.60-56.08 66.24-53.20L66.24-53.20L66.24-53.20Q62.88-50.32 59.76-45.72L59.76-45.72L59.76-45.72Q56.64-41.12 53.96-35.44L53.96-35.44L53.96-35.44Q51.28-29.76 49.32-24.12L49.32-24.12L49.32-24.12Q47.36-18.48 46.24-13.48L46.24-13.48L46.24-13.48Q45.12-8.48 45.12-5.36L45.12-5.36L45.12-5.36Q45.12-2.96 46.48-2.96L46.48-2.96L46.48-2.96Q47.44-2.96 48.36-3.76L48.36-3.76L48.36-3.76Q49.28-4.56 50.48-6.16L50.48-6.16L50.48-6.16Q50.72-6.32 50.92-6.12L50.92-6.12L50.92-6.12Q51.12-5.92 51.04-5.60L51.04-5.60L51.04-5.60Q49.44-3.12 47.52-1.56L47.52-1.56L47.52-1.56Q45.60 0 44.24 0L44.24 0L44.24 0Q43.20 0 42.56-0.84L42.56-0.84L42.56-0.84Q41.92-1.68 41.92-3.12L41.92-3.12L41.92-3.12Q41.92-5.36 42.72-8.92L42.72-8.92L42.72-8.92Q43.52-12.48 44.96-16.88L44.96-16.88L44.96-16.88Q46.40-21.28 48.44-26.12L48.44-26.12L48.44-26.12Q50.48-30.96 52.88-35.68L52.88-35.68L52.88-35.68Q55.28-40.40 57.96-44.72L57.96-44.72L57.96-44.72Q60.64-49.04 63.48-52.32L63.48-52.32L63.48-52.32Q66.32-55.60 69.20-57.52L69.20-57.52L69.20-57.52Q72.08-59.44 74.88-59.44ZM54.40-14.88L54.40-14.88L54.40-14.88Q54.16-14.72 53.96-15L53.96-15L53.96-15Q53.76-15.28 53.92-15.52L53.92-15.52L53.92-15.52Q55.04-16.64 56.96-18.08L56.96-18.08L56.96-18.08Q58.88-19.52 60.80-20.48L60.80-20.48L60.80-20.48Q61.44-20.48 61.44-19.76L61.44-19.76L61.44-19.76Q60.40-17.92 59.40-15.76L59.40-15.76L59.40-15.76Q58.40-13.60 57.64-11.48L57.64-11.48L57.64-11.48Q56.88-9.36 56.40-7.40L56.40-7.40L56.40-7.40Q55.92-5.44 55.92-4.16L55.92-4.16L55.92-4.16Q55.92-2.48 57.04-2.48L57.04-2.48L57.04-2.48Q57.92-2.48 58.76-3.24L58.76-3.24L58.76-3.24Q59.60-4 60.72-5.28L60.72-5.28L60.72-5.28Q60.88-5.44 61.12-5.20L61.12-5.20L61.12-5.20Q61.36-4.96 61.20-4.64L61.20-4.64L61.20-4.64Q59.76-2.88 58.12-1.44L58.12-1.44L58.12-1.44Q56.48 0 55.04 0L55.04 0L55.04 0Q52.96 0 52.96-2.64L52.96-2.64L52.96-2.64Q52.96-4.16 53.48-6.28L53.48-6.28L53.48-6.28Q54-8.40 54.80-10.56L54.80-10.56L54.80-10.56Q55.60-12.72 56.60-14.72L56.60-14.72L56.60-14.72Q57.60-16.72 58.56-18.16L58.56-18.16L58.56-18.16Q57.68-17.52 56.36-16.52L56.36-16.52L56.36-16.52Q55.04-15.52 54.40-14.88ZM61.60-23.92L61.60-23.92L61.60-23.92Q61.36-23.68 61.16-23.88L61.16-23.88L61.16-23.88Q60.96-24.08 60.88-24.44L60.88-24.44L60.88-24.44Q60.80-24.80 60.80-25.28L60.80-25.28L60.80-25.28Q60.80-25.76 61.04-26.08L61.04-26.08L61.04-26.08Q63.12-28.96 66.88-32.24L66.88-32.24L66.88-32.24Q67.12-32.32 67.36-32.12L67.36-32.12L67.36-32.12Q67.60-31.92 67.44-31.76L67.44-31.76L67.44-31.76Q65.76-30.24 64.24-28.12L64.24-28.12L64.24-28.12Q62.72-26 61.60-23.92ZM66-3.92L66-3.92L66-3.92Q67.84-3.28 69.80-2.84L69.80-2.84L69.80-2.84Q71.76-2.40 73.76-2.40L73.76-2.40L73.76-2.40Q75.84-2.40 77.16-3.56L77.16-3.56L77.16-3.56Q78.48-4.72 79.36-7.04L79.36-7.04L79.36-7.04Q79.60-7.20 79.92-7.04L79.92-7.04L79.92-7.04Q80.24-6.88 80.08-6.56L80.08-6.56L80.08-6.56Q78.96-3.52 77.16-1.72L77.16-1.72L77.16-1.72Q75.36 0.08 72.88 0.08L72.88 0.08L72.88 0.08Q71.20 0.08 69.52-0.28L69.52-0.28L69.52-0.28Q67.84-0.64 66-1.28L66-1.28L66-1.28Q65.04-1.68 64.20-1.36L64.20-1.36L64.20-1.36Q63.36-1.04 62.16 0.08L62.16 0.08L62.16 0.08Q61.76 0.08 61.52-0.32L61.52-0.32L61.52-0.32Q61.28-0.72 61.52-1.12L61.52-1.12L61.52-1.12Q63.28-2.88 65.40-4.96L65.40-4.96L65.40-4.96Q67.52-7.04 69.68-9.20L69.68-9.20L69.68-9.20Q71.84-11.36 73.88-13.36L73.88-13.36L73.88-13.36Q75.92-15.36 77.60-17.04L77.60-17.04L77.60-17.04Q75.84-17.44 73.68-17.68L73.68-17.68L73.68-17.68Q71.52-17.92 70-17.92L70-17.92L70-17.92Q67.68-17.92 66.80-15.36L66.80-15.36L66.80-15.36Q66.64-15.12 66.32-15.28L66.32-15.28L66.32-15.28Q66-15.44 66-15.68L66-15.68L66-15.68Q66.64-17.44 68-18.92L68-18.92L68-18.92Q69.36-20.40 71.44-20.40L71.44-20.40L71.44-20.40Q73.28-20.40 74.96-20.04L74.96-20.04L74.96-20.04Q76.64-19.68 77.76-19.36L77.76-19.36L77.76-19.36Q78.64-19.20 79.28-19.40L79.28-19.40L79.28-19.40Q79.92-19.60 80.56-20.16L80.56-20.16L80.56-20.16Q80.80-20.40 81.28-20.40L81.28-20.40L81.28-20.40Q82.24-20.40 82.08-19.76L82.08-19.76L82.08-19.76Q77.76-15.60 73.64-11.56L73.64-11.56L73.64-11.56Q69.52-7.52 66-3.92ZM102.80-5.04L102.80-5.04L102.80-5.04Q102.96-5.20 103.20-5.04L103.20-5.04L103.20-5.04Q103.44-4.88 103.36-4.56L103.36-4.56L103.36-4.56Q101.68-2.24 100.04-1.12L100.04-1.12L100.04-1.12Q98.40 0 97.28 0L97.28 0L97.28 0Q96.56 0 96.12-0.72L96.12-0.72L96.12-0.72Q95.68-1.44 95.56-2.68L95.56-2.68L95.56-2.68Q95.44-3.92 95.64-5.48L95.64-5.48L95.64-5.48Q95.84-7.04 96.32-8.72L96.32-8.72L96.32-8.72Q94.16-5.36 91.76-2.92L91.76-2.92L91.76-2.92Q89.36-0.48 87.12 0L87.12 0L87.12 0Q85.68 0 84.68-1.40L84.68-1.40L84.68-1.40Q83.68-2.80 83.68-5.76L83.68-5.76L83.68-5.76Q83.68-8.40 84.76-11L84.76-11L84.76-11Q85.84-13.60 87.68-15.72L87.68-15.72L87.68-15.72Q89.52-17.84 91.92-19.12L91.92-19.12L91.92-19.12Q94.32-20.40 96.96-20.40L96.96-20.40L96.96-20.40Q98.40-20.40 99.44-20.08L99.44-20.08L99.44-20.08Q100.48-19.76 101.36-19.12L101.36-19.12L101.36-19.12Q101.84-19.52 102.68-19.88L102.68-19.88L102.68-19.88Q103.52-20.24 104.24-20.24L104.24-20.24L104.24-20.24Q104.64-20.24 104.48-19.84L104.48-19.84L104.48-19.84Q102.64-17.60 101.32-14.88L101.32-14.88L101.32-14.88Q100-12.16 99.28-9.60L99.28-9.60L99.28-9.60Q98.56-7.04 98.36-5.08L98.36-5.08L98.36-5.08Q98.16-3.12 98.64-2.40L98.64-2.40L98.64-2.40Q99.04-1.84 100.08-2.36L100.08-2.36L100.08-2.36Q101.12-2.88 102.80-5.04ZM88.88-2.72L88.88-2.72L88.88-2.72Q89.76-2.72 91.16-3.96L91.16-3.96L91.16-3.96Q92.56-5.20 94.08-7.20L94.08-7.20L94.08-7.20Q95.60-9.20 97.08-11.72L97.08-11.72L97.08-11.72Q98.56-14.24 99.68-16.80L99.68-16.80L99.68-16.80Q99.36-17.84 98.20-18.48L98.20-18.48L98.20-18.48Q97.04-19.12 95.52-19.12L95.52-19.12L95.52-19.12Q93.76-19.12 92.20-18.20L92.20-18.20L92.20-18.20Q90.64-17.28 89.44-15.64L89.44-15.64L89.44-15.64Q88.24-14 87.52-11.76L87.52-11.76L87.52-11.76Q86.80-9.52 86.80-6.80L86.80-6.80L86.80-6.80Q86.80-5.04 87.40-3.88L87.40-3.88L87.40-3.88Q88-2.72 88.88-2.72ZM183.36-48.72L183.36-48.72L183.36-48.72Q183.68-48.48 183.48-48.04L183.48-48.04L183.48-48.04Q183.28-47.60 182.80-47.20L182.80-47.20L182.80-47.20Q182.32-46.80 181.68-46.48L181.68-46.48L181.68-46.48Q181.04-46.16 180.48-46.16L180.48-46.16L180.48-46.16Q178.56-46.32 176.60-46.60L176.60-46.60L176.60-46.60Q174.64-46.88 172.72-47.20L172.72-47.20L172.72-47.20Q171.12-46.72 169.88-45.80L169.88-45.80L169.88-45.80Q168.64-44.88 167.60-43.32L167.60-43.32L167.60-43.32Q166.56-41.76 165.60-39.36L165.60-39.36L165.60-39.36Q164.64-36.96 163.68-33.44L163.68-33.44L163.68-33.44Q163.12-31.60 162.64-29.84L162.64-29.84L162.64-29.84Q162.16-28.08 161.52-26.40L161.52-26.40L161.52-26.40Q163.52-26.48 165.56-26.48L165.56-26.48L165.56-26.48Q167.60-26.48 169.76-26.48L169.76-26.48L169.76-26.48Q170.16-26.32 170.04-26.08L170.04-26.08L170.04-26.08Q169.92-25.84 169.28-25.68L169.28-25.68L169.28-25.68Q167.20-25.68 165.16-25.64L165.16-25.64L165.16-25.64Q163.12-25.60 161.20-25.52L161.20-25.52L161.20-25.52Q156.48-12.32 149.32-6.16L149.32-6.16L149.32-6.16Q142.16 0 132.24 0L132.24 0L132.24 0Q126.48 0 123.60-2.92L123.60-2.92L123.60-2.92Q120.72-5.84 120.72-10.64L120.72-10.64L120.72-10.64Q120.72-12.96 121.96-15.28L121.96-15.28L121.96-15.28Q123.20-17.60 125.52-19.20L125.52-19.20L125.52-19.20Q125.92-19.20 126.04-18.88L126.04-18.88L126.04-18.88Q126.16-18.56 126-18.32L126-18.32L126-18.32Q124.56-17.20 123.88-15.88L123.88-15.88L123.88-15.88Q123.20-14.56 123.20-12.32L123.20-12.32L123.20-12.32Q123.20-10.24 123.92-8.48L123.92-8.48L123.92-8.48Q124.64-6.72 126.16-5.40L126.16-5.40L126.16-5.40Q127.68-4.08 130.08-3.36L130.08-3.36L130.08-3.36Q132.48-2.64 135.84-2.64L135.84-2.64L135.84-2.64Q139.84-2.64 143.04-3.80L143.04-3.80L143.04-3.80Q146.24-4.96 148.92-7.64L148.92-7.64L148.92-7.64Q151.60-10.32 153.88-14.68L153.88-14.68L153.88-14.68Q156.16-19.04 158.24-25.36L158.24-25.36L158.24-25.36Q154.24-25.20 150.44-24.88L150.44-24.88L150.44-24.88Q146.64-24.56 142.80-24L142.80-24L142.80-24Q142.56-24.08 142.88-24.36L142.88-24.36L142.88-24.36Q143.20-24.64 143.80-24.92L143.80-24.92L143.80-24.92Q144.40-25.20 145.08-25.48L145.08-25.48L145.08-25.48Q145.76-25.76 146.16-25.84L146.16-25.84L146.16-25.84Q149.44-26.08 152.48-26.20L152.48-26.20L152.48-26.20Q155.52-26.32 158.56-26.40L158.56-26.40L158.56-26.40Q158.96-27.68 159.36-29.04L159.36-29.04L159.36-29.04Q159.76-30.40 160.16-31.84L160.16-31.84L160.16-31.84Q161.12-35.28 162.12-37.88L162.12-37.88L162.12-37.88Q163.12-40.48 164.40-42.32L164.40-42.32L164.40-42.32Q165.68-44.16 167.24-45.40L167.24-45.40L167.24-45.40Q168.80-46.64 170.88-47.44L170.88-47.44L170.88-47.44Q166.56-48.08 162.56-48.60L162.56-48.60L162.56-48.60Q158.56-49.12 154.96-49.12L154.96-49.12L154.96-49.12Q148.96-49.12 144.88-46.56L144.88-46.56L144.88-46.56Q140.80-44 138.96-38.48L138.96-38.48L138.96-38.48Q138.72-38.32 138.48-38.44L138.48-38.44L138.48-38.44Q138.24-38.56 138.24-38.96L138.24-38.96L138.24-38.96Q140-44.64 145.16-48.08L145.16-48.08L145.16-48.08Q150.32-51.52 157.92-51.52L157.92-51.52L157.92-51.52Q160.88-51.52 163.88-51.20L163.88-51.20L163.88-51.20Q166.88-50.88 170-50.44L170-50.44L170-50.44Q173.12-50 176.44-49.52L176.44-49.52L176.44-49.52Q179.76-49.04 183.36-48.72ZM170.16 0L170.16 0L170.16 0Q169.20 0 169.20-1.76L169.20-1.76L169.20-1.76Q169.20-2.24 169.52-2.80L169.52-2.80L169.52-2.80Q169.84-3.36 170.40-3.92L170.40-3.92L170.40-3.92Q170.96-4.48 171.60-4.84L171.60-4.84L171.60-4.84Q172.24-5.20 172.96-5.20L172.96-5.20L172.96-5.20Q173.76-5.20 173.76-4L173.76-4L173.76-4Q173.76-3.36 173.40-2.68L173.40-2.68L173.40-2.68Q173.04-2 172.52-1.40L172.52-1.40L172.52-1.40Q172-0.80 171.36-0.40L171.36-0.40L171.36-0.40Q170.72 0 170.16 0Z" fill="url(#editing-shiny-gradient2)"></path></g></g><style>text {
  font-size: 64px;
  font-family: Arial Black;
  dominant-baseline: central;
  text-anchor: middle;
}</style></svg>